<?xml version="1.0" encoding="utf-8"?>
<!-- Generator: Adobe Illustrator 16.0.0, SVG Export Plug-In . SVG Version: 6.00 Build 0)  -->
<!DOCTYPE svg PUBLIC "-//W3C//DTD SVG 1.1//EN" "http://www.w3.org/Graphics/SVG/1.1/DTD/svg11.dtd">
<svg version="1.1" id="Layer_1" xmlns="http://www.w3.org/2000/svg" xmlns:xlink="http://www.w3.org/1999/xlink" x="0px" y="0px"
	 width="250px" height="85px" viewBox="0 0 492.666 135" enable-background="new 0 0 492.666 135" xml:space="preserve">
<g>
	<defs>
		<rect id="SVGID_1_" x="-60" y="-313" width="612" height="792"/>
	</defs>
	<clipPath id="SVGID_2_">
		<use xlink:href="#SVGID_1_"  overflow="visible"/>
	</clipPath>
	<path clip-path="url(#SVGID_2_)" d="M223.438,59.308c0,9.913,3.247,17.945,15.723,17.945c12.478,0,15.725-8.032,15.725-17.945
		V46.747c0-9.913-3.247-17.945-15.725-17.945c-12.476,0-15.723,8.032-15.723,17.945V59.308z M234.376,47.43
		c0-8.374,1.709-10.425,4.785-10.425c3.077,0,4.786,2.051,4.786,10.425v11.024c0,8.545-1.367,10.596-4.786,10.596
		c-3.418,0-4.785-2.051-4.785-10.596V47.43z M176.696,71.015c0,4.273,2.051,6.238,5.212,6.238c3.162,0,5.213-1.965,5.213-6.238
		V46.149c0-5.811,2.136-8.289,5.469-8.289c2.222,0,4.016,1.452,4.016,4.871v28.284c0,4.273,2.051,6.238,5.213,6.238
		s5.212-1.965,5.212-6.238V40.252c0-7.861-4.187-11.45-9.998-11.45c-4.016,0-8.032,1.965-9.741,5.981h-0.171
		c0-4.016-2.051-5.981-5.213-5.981c-3.161,0-5.212,1.965-5.212,6.238V71.015z M128.586,71.015c0,4.273,2.051,6.238,5.213,6.238
		c3.161,0,5.212-1.965,5.212-6.238V46.149c0-5.811,2.137-8.289,5.469-8.289c2.222,0,4.017,1.452,4.017,4.871v28.284
		c0,4.273,2.05,6.238,5.212,6.238s5.213-1.965,5.213-6.238V40.252c0-7.861-4.187-11.45-9.998-11.45
		c-4.016,0-8.033,1.965-9.742,5.981h-0.171V19.744c0-4.273-2.051-6.238-5.212-6.238c-3.162,0-5.213,1.965-5.213,6.238V71.015z
		 M82.613,57.257c0,11.109,1.367,19.996,15.296,19.996c12.305,0,14.441-9.741,14.441-14.356c0-3.845-2.05-6.067-5.127-6.067
		c-3.332,0-5.041,1.624-5.298,7.52c-0.085,3.675-1.965,4.7-3.931,4.7c-3.332,0-4.443-3.247-4.443-10.938V47.858
		c0-6.153,0.256-10.853,4.443-10.853c2.222,0,3.931,1.538,3.931,4.444c0,4.272,1.795,5.896,5.298,5.896
		c2.906,0,5.127-1.795,5.127-5.896c0-4.187-2.478-12.647-14.441-12.647c-13.929,0-15.296,8.887-15.296,19.996V57.257z
		 M37.323,57.855c0,11.792,1.709,19.397,15.895,19.397c8.459,0,14.185-5.041,14.185-13.416c0-4.101-2.222-5.127-5.298-5.127
		c-2.906,0-4.957,1.026-5.128,5.555c-0.085,2.478-1.794,4.785-4.016,4.785c-4.272,0-4.7-4.358-4.7-9.913v-4.699h13.673
		c5.298,0,5.811-3.248,5.811-7.435c0-12.134-3.675-18.201-14.527-18.201c-14.186,0-15.895,7.605-15.895,19.398V57.855z
		 M48.261,47.089v-3.846c0-3.503,1.111-6.238,4.529-6.238s4.529,2.735,4.529,6.238v3.846H48.261z M9.125,68.11
		c0,4.358,2.478,8.545,10.511,8.545c4.443,0,6.58-1.367,6.58-4.871c0-2.734-1.453-3.589-3.846-3.674
		c-2.392-0.171-2.82-1.282-2.82-3.247V37.688h2.393c3.076,0,4.614-1.026,4.614-3.846c0-2.905-1.538-3.93-4.614-3.93H19.55v-7.948
		c0-4.272-2.051-6.238-5.212-6.238c-3.162,0-5.213,1.966-5.213,6.238v7.948H8.014c-3.076,0-4.614,1.025-4.614,3.93
		c0,2.82,1.538,3.846,4.614,3.846h1.111V68.11z"/>
	<path clip-path="url(#SVGID_2_)" d="M479.043,126.422h1.898v-11.904h-9.909v2.533h7.219c0.189,4.116-2.597,7.376-7.25,7.376
		c-5.034,0-7.756-4.305-7.756-9.021c0-4.845,2.278-9.594,7.756-9.594c3.355,0,6.109,1.552,6.712,4.971h3.007
		c-0.854-5.287-4.78-7.503-9.719-7.503c-7.155,0-10.765,5.698-10.765,12.283c0,5.89,4.021,11.397,10.765,11.397
		c2.659,0,5.509-0.981,7.25-3.356L479.043,126.422z M430.541,126.422h2.85v-18.141h0.063l11.809,18.141h3.292v-22.605h-2.849v18.331
		h-0.063l-11.904-18.331h-3.197V126.422z M414.586,126.422h3.008v-22.605h-3.008V126.422z M383.654,126.422h2.851v-18.141h0.063
		l11.81,18.141h3.292v-22.605h-2.85v18.331h-0.063l-11.904-18.331h-3.198V126.422z M354.086,126.422h3.008v-9.656h7.344
		c2.913,0,3.451,1.868,3.769,4.084c0.442,2.216-0.032,4.654,0.822,5.572h3.356c-1.267-1.551-1.14-4.021-1.33-6.237
		c-0.221-2.216-0.76-4.146-3.387-4.653v-0.063c2.722-0.76,3.925-3.008,3.925-5.729c0-3.609-2.627-5.922-6.87-5.922h-10.637V126.422z
		 M357.094,114.232v-7.883h7.471c2.818,0,4.021,1.646,4.021,3.863c0,3.292-2.406,4.02-5.225,4.02H357.094z M333.381,106.54h0.063
		l3.769,10.543h-7.662L333.381,106.54z M322.965,126.422h3.103l2.533-6.807h9.562l2.469,6.807h3.324l-8.833-22.605h-3.324
		L322.965,126.422z M298.397,126.422h15.703v-2.533h-12.695v-7.82h11.745v-2.531h-11.745v-7.188h12.601v-2.533h-15.608V126.422z
		 M272.881,126.422h14.975v-2.533h-11.967v-20.072h-3.008V126.422z"/>
	<path clip-path="url(#SVGID_2_)" fill="#DA3E2E" d="M485.92,62.006l-0.585-3.961c-0.095,0.001-0.173,0.013-0.269,0.013h-24.953
		c0.428,5.64,3.675,9.314,9.399,9.314c6.409,0,10.169-5.469,15.554-5.469C485.359,61.903,485.64,61.954,485.92,62.006
		 M460.113,49.342h16.492c0-6.153-3.846-8.375-8.203-8.375C464.472,40.967,460.37,43.104,460.113,49.342 M356.718,54.212
		c0-6.238-2.905-9.656-6.751-9.656c-6.066,0-7.947,4.956-7.947,10.084c0,4.785,1.624,10.169,7.605,10.169
		C354.667,64.809,356.718,60.536,356.718,54.212 M373.552,69.081c0,5.64-2.563,8.546-7.86,8.546c-5.042,0-7.691-3.504-7.691-8.033
		h-0.171c-1.453,5.64-8.374,8.033-13.416,8.033c-12.305,0-19.996-9.144-19.996-23.585c0-8.631,4.785-23.329,19.483-23.329
		c5.811,0,9.826,2.735,12.391,6.836h0.171V22.68c0-6.067,3.076-8.801,8.545-8.801s8.545,2.734,8.545,8.801V69.081z M481.758,33.836
		l-2.364-16c0,0-1.952-13.22-15.315-13.22H289.69c0,0-13.363,0-15.316,13.22l-2.901,19.636c4.561-4.581,11.295-6.759,18.936-6.759
		c19.653,0,25.636,13.502,25.636,20.167c0,5.298-2.478,7.178-8.118,7.178h-24.952c0.428,5.64,3.675,9.314,9.399,9.314
		c6.409,0,10.169-5.469,15.553-5.469c3.076,0,5.469,2.991,5.469,5.811c0,4.871-5.981,9.913-22.986,9.913
		c-10.417,0-19.171-4.023-22.985-12.751l-1.942,13.151c0,0-1.953,13.219,11.409,13.219h115.266c-4.305-2.255-5.701-5.3-5.701-7.296
		c0-3.589,2.393-6.494,6.409-6.494c4.102,0,7.178,5.469,13.246,5.469c7.178,0,9.398-3.247,9.398-9.571v-5.896h-0.171
		c-1.794,4.272-6.921,6.152-12.305,6.152c-8.118,0-19.142-5.469-19.142-21.363c0-11.707,7.093-21.534,19.483-21.534
		c5.127,0,12.049,2.393,13.502,8.033h0.171c0-4.529,2.648-8.033,7.69-8.033c5.298,0,7.861,2.905,7.861,8.545v35.976
		c0,8.089-3.446,13.165-9.234,16.012h53.514c0,0,13.363,0,11.41-13.219l-0.726-4.903c-3.295,2.597-9.567,4.503-20.015,4.503
		c-14.014,0-25.038-7.264-25.038-23.5c0-16.151,11.024-23.414,25.038-23.414C473.458,30.713,478.111,31.948,481.758,33.836
		 M291.262,40.967c-3.93,0-8.031,2.137-8.288,8.375h16.492C299.466,43.189,295.621,40.967,291.262,40.967 M416.192,52.418
		c0-4.956-1.881-9.4-7.35-9.4c-5.384,0-7.349,3.675-7.349,9.4c0,5.725,1.965,9.4,7.349,9.4
		C414.312,61.818,416.192,57.374,416.192,52.418"/>
</g>
</svg>
